<svg width="400" height="70" viewBox="0 0 400 70" fill="none" xmlns="http://www.w3.org/2000/svg">
<rect width="400" height="70" fill="#135273"/>
<path d="M134.512 37.4727L140.117 39.25C139.258 42.375 137.826 44.6992 135.82 46.2227C133.828 47.7331 131.296 48.4883 128.223 48.4883C124.421 48.4883 121.296 47.1927 118.848 44.6016C116.4 41.9974 115.176 38.4427 115.176 33.9375C115.176 29.1719 116.406 25.474 118.867 22.8438C121.328 20.2005 124.564 18.8789 128.574 18.8789C132.077 18.8789 134.922 19.9141 137.109 21.9844C138.411 23.2083 139.388 24.9661 140.039 27.2578L134.316 28.625C133.978 27.1406 133.268 25.9688 132.188 25.1094C131.12 24.25 129.818 23.8203 128.281 23.8203C126.159 23.8203 124.434 24.582 123.105 26.1055C121.79 27.6289 121.133 30.0964 121.133 33.5078C121.133 37.1276 121.784 39.7057 123.086 41.2422C124.388 42.7786 126.081 43.5469 128.164 43.5469C129.701 43.5469 131.022 43.0586 132.129 42.082C133.236 41.1055 134.03 39.569 134.512 37.4727ZM145.117 48V19.3672H150.898V30.6367H162.227V19.3672H168.008V48H162.227V35.4805H150.898V48H145.117ZM172.832 33.8594C172.832 30.9427 173.268 28.4948 174.141 26.5156C174.792 25.0573 175.677 23.7487 176.797 22.5898C177.93 21.431 179.167 20.5716 180.508 20.0117C182.292 19.2565 184.349 18.8789 186.68 18.8789C190.898 18.8789 194.271 20.1875 196.797 22.8047C199.336 25.4219 200.605 29.0612 200.605 33.7227C200.605 38.3451 199.349 41.9648 196.836 44.582C194.323 47.1862 190.964 48.4883 186.758 48.4883C182.5 48.4883 179.115 47.1927 176.602 44.6016C174.089 41.9974 172.832 38.4167 172.832 33.8594ZM178.789 33.6641C178.789 36.9062 179.538 39.3672 181.035 41.0469C182.533 42.7135 184.434 43.5469 186.738 43.5469C189.043 43.5469 190.931 42.7201 192.402 41.0664C193.887 39.3997 194.629 36.9062 194.629 33.5859C194.629 30.3047 193.906 27.8568 192.461 26.2422C191.029 24.6276 189.121 23.8203 186.738 23.8203C184.355 23.8203 182.435 24.6406 180.977 26.2812C179.518 27.9089 178.789 30.3698 178.789 33.6641ZM203.965 33.8594C203.965 30.9427 204.401 28.4948 205.273 26.5156C205.924 25.0573 206.81 23.7487 207.93 22.5898C209.062 21.431 210.299 20.5716 211.641 20.0117C213.424 19.2565 215.482 18.8789 217.812 18.8789C222.031 18.8789 225.404 20.1875 227.93 22.8047C230.469 25.4219 231.738 29.0612 231.738 33.7227C231.738 38.3451 230.482 41.9648 227.969 44.582C225.456 47.1862 222.096 48.4883 217.891 48.4883C213.633 48.4883 210.247 47.1927 207.734 44.6016C205.221 41.9974 203.965 38.4167 203.965 33.8594ZM209.922 33.6641C209.922 36.9062 210.671 39.3672 212.168 41.0469C213.665 42.7135 215.566 43.5469 217.871 43.5469C220.176 43.5469 222.064 42.7201 223.535 41.0664C225.02 39.3997 225.762 36.9062 225.762 33.5859C225.762 30.3047 225.039 27.8568 223.594 26.2422C222.161 24.6276 220.254 23.8203 217.871 23.8203C215.488 23.8203 213.568 24.6406 212.109 26.2812C210.651 27.9089 209.922 30.3698 209.922 33.6641ZM234.805 38.6836L240.43 38.1367C240.768 40.0247 241.452 41.4115 242.48 42.2969C243.522 43.1823 244.922 43.625 246.68 43.625C248.542 43.625 249.941 43.2344 250.879 42.4531C251.829 41.6589 252.305 40.7344 252.305 39.6797C252.305 39.0026 252.103 38.4297 251.699 37.9609C251.309 37.4792 250.618 37.0625 249.629 36.7109C248.952 36.4766 247.409 36.0599 245 35.4609C241.901 34.6927 239.727 33.7487 238.477 32.6289C236.719 31.0534 235.84 29.1328 235.84 26.8672C235.84 25.4089 236.25 24.0482 237.07 22.7852C237.904 21.5091 239.095 20.5391 240.645 19.875C242.207 19.2109 244.089 18.8789 246.289 18.8789C249.883 18.8789 252.585 19.6667 254.395 21.2422C256.217 22.8177 257.174 24.9206 257.266 27.5508L251.484 27.8047C251.237 26.3333 250.703 25.2786 249.883 24.6406C249.076 23.9896 247.858 23.6641 246.23 23.6641C244.551 23.6641 243.236 24.0091 242.285 24.6992C241.673 25.1419 241.367 25.7344 241.367 26.4766C241.367 27.1536 241.654 27.7331 242.227 28.2148C242.956 28.8268 244.727 29.4648 247.539 30.1289C250.352 30.793 252.428 31.4831 253.77 32.1992C255.124 32.9023 256.178 33.8724 256.934 35.1094C257.702 36.3333 258.086 37.8503 258.086 39.6602C258.086 41.3008 257.63 42.8372 256.719 44.2695C255.807 45.7018 254.518 46.7695 252.852 47.4727C251.185 48.1628 249.108 48.5078 246.621 48.5078C243.001 48.5078 240.221 47.6745 238.281 46.0078C236.341 44.3281 235.182 41.8867 234.805 38.6836ZM262.949 48V19.3672H284.18V24.2109H268.73V30.5586H283.105V35.3828H268.73V43.1758H284.727V48H262.949Z" fill="white"/>
</svg>
